# xmcd
#
# Track frame offsets:
#	150
#	19817
#	47662
#	72395
#	87262
#	103452
#	127562
#	153995
#	173417
#	198027
#	224525
#
# Disc length: 3210 seconds
#
# Revision: 0
# Processed by: cddbd v1.5.1PL0 Copyright (c) Steve Scherf et al.
# Submitted via: dBpowerAMP V4.0
#
DISCID=8c0c880b
DTITLE=Boz Scaggs - Some change
DYEAR=1994
DGENRE=Rhythmic Soul
TTITLE0=You got my letter
TTITLE1=Some change
TTITLE2=I'll be the one
TTITLE3=Call me
TTITLE4=Fly like a bird
TTITLE5=Sierra
TTITLE6=Lost it
TTITLE7=Time
TTITLE8=Illusion
TTITLE9=Follow that man
TTITLE10=Sierra (español)
EXTD=
EXTT0=
EXTT1=
EXTT2=
EXTT3=
EXTT4=
EXTT5=
EXTT6=
EXTT7=
EXTT8=
EXTT9=
EXTT10=
PLAYORDER=
